<svg version="1.1" xmlns="http://www.w3.org/2000/svg" xmlns:xlink="http://www.w3.org/1999/xlink" width="300" height="300" viewBox="0,0,300,300"><defs><linearGradient x1="90" y1="180" x2="390" y2="180" gradientUnits="userSpaceOnUse" id="color-1"><stop offset="0" stop-color="#ffcc23"/><stop offset="1" stop-color="#a17212"/></linearGradient></defs><g transform="translate(-90,-30)"><g data-paper-data="{&quot;isPaintingLayer&quot;:true}" fill-rule="nonzero" stroke="none" stroke-width="0" stroke-linecap="butt" stroke-linejoin="miter" stroke-miterlimit="10" stroke-dasharray="" stroke-dashoffset="0" style="mix-blend-mode: normal"><path d="M240,30c82.84271,0 150,67.15729 150,150c0,82.84271 -67.15729,150 -150,150c-82.84271,0 -150,-67.15729 -150,-150c0,-82.84271 67.15729,-150 150,-150z" data-paper-data="{&quot;index&quot;:null}" fill="url(#color-1)"/><path d="M234.30452,255.85645c-18.77768,0 -34,-15.22232 -34,-34v-39.12344c0,-18.77768 15.22232,-34 34,-34h68.48722c18.77768,0 34,15.22232 34,34v39.12344c0,18.77768 -15.22232,34 -34,34z" fill="#cbd4e6"/><path d="M177.20827,211.26698c-18.77768,0 -34,-15.22232 -34,-34v-39.12344c0,-18.77768 15.22232,-34 34,-34h68.48722c18.77768,0 34,15.22232 34,34v39.12344c0,18.77768 -15.22232,34 -34,34z" fill="#f3f4f8"/></g></g></svg>